<svg width="37" height="31" viewBox="0 0 37 31" fill="none" xmlns="http://www.w3.org/2000/svg">
<path fill-rule="evenodd" clip-rule="evenodd" d="M34.0487 16.2686C33.6459 24.4719 26.8299 31 18.4806 31C15.9162 31 13.4964 30.3838 11.3626 29.2926C12.8575 28.7973 14.4824 28.1495 16.2326 27.3489C18.3833 26.3652 20.7231 25.1505 23.2431 23.7036C25.7639 22.2563 27.9923 20.8484 29.9248 19.4878C31.4954 18.382 32.8707 17.3073 34.0487 16.2686ZM18.4806 0C22.3349 0 25.8625 1.39114 28.5833 3.69603L29.1323 3.57268C29.2269 3.55249 29.3231 3.53259 29.4206 3.51312L30.0197 3.40264L30.6418 3.3096C32.8499 3.02274 35.3288 3.18636 36.4788 5.16693C37.7985 7.4399 36.3778 9.96078 34.822 11.8185L34.4318 12.2686L34.0449 12.688C31.6303 15.2336 27.6324 18.2004 21.9442 21.4663C16.2562 24.732 11.6734 26.6915 8.24907 27.498L7.97381 27.5609L7.40007 27.6789L6.80143 27.7814C4.46826 28.1365 1.74681 28.0119 0.48214 25.8337C-0.667485 23.8536 0.428751 21.6374 1.78204 19.8796L2.17397 19.3904C2.23989 19.3111 2.30596 19.2331 2.37196 19.1563L2.76555 18.7113L3.14736 18.3002C2.98065 17.3917 2.89352 16.455 2.89352 15.5C2.89352 6.93959 9.87219 0 18.4806 0ZM4.40296 22.1624L4.13597 22.5299C3.84905 22.9346 3.53503 23.4347 3.48823 23.8865L3.48845 24.1077C3.73122 24.5377 4.5907 24.5424 5.22349 24.4953L5.74949 24.4449C5.23834 23.7267 4.78709 22.9636 4.40296 22.1624ZM33.4725 6.893C33.1214 6.6335 32.5491 6.61051 32.0281 6.64223L31.5344 6.68544C31.4583 6.69343 31.3862 6.70126 31.3193 6.70809C31.8215 7.43189 32.2633 8.20026 32.6378 9.00598L32.9169 8.61824C33.2427 8.14813 33.6435 7.47784 33.535 7.02974L33.4791 6.88918L33.4725 6.893Z" fill="#BADBD7"/>
</svg>
