<svg width="35" height="36" viewBox="0 0 35 36" fill="none" xmlns="http://www.w3.org/2000/svg">
<path d="M29.0249 35.5589H5.80499C4.26577 35.5578 2.78991 34.9458 1.70152 33.8574C0.613121 32.769 0.00115567 31.2932 2.55143e-06 29.754V26.8515C-0.00147564 24.9203 0.639384 23.0434 1.82168 21.5164C3.00398 19.9894 4.66056 18.899 6.53062 18.4168L7.73999 18.1048V20.5564C7.74088 22.2246 8.40353 23.8243 9.58252 25.0045C10.7615 26.1847 12.3605 26.8489 14.0287 26.8515H20.8012C22.4694 26.8489 24.0684 26.1847 25.2474 25.0045C26.4264 23.8243 27.0891 22.2246 27.0899 20.5564V18.1053L28.2993 18.4168C30.1695 18.8988 31.8261 19.9892 33.0085 21.5162C34.1908 23.0433 34.8316 24.9202 34.8299 26.8515V29.754C34.8288 31.2932 34.2168 32.769 33.1284 33.8574C32.04 34.9458 30.5642 35.5578 29.0249 35.5589ZM5.80499 20.7267C4.64617 21.2764 3.66726 22.1438 2.98215 23.2281C2.29704 24.3124 1.93391 25.5689 1.935 26.8515V29.754C1.935 30.7803 2.34273 31.7647 3.06849 32.4905C3.79426 33.2162 4.77861 33.624 5.80499 33.624H29.0249C30.0513 33.624 31.0357 33.2162 31.7614 32.4905C32.4872 31.7647 32.8949 30.7803 32.8949 29.754V26.8515C32.8957 25.5692 32.5324 24.3131 31.8473 23.2292C31.1622 22.1453 30.1835 21.2782 29.0249 20.7287C28.9783 22.8798 28.0917 24.9273 26.5549 26.4332C25.018 27.939 22.9529 28.7837 20.8012 28.7865H14.0287C11.8767 28.7837 9.81133 27.9387 8.2744 26.4325C6.73748 24.9262 5.85112 22.8782 5.80499 20.7267Z" fill="#BADBD7"/>
<path d="M20.8012 29.0283H14.0287C11.848 29.0253 9.75749 28.1574 8.21581 26.6151C6.67412 25.0727 5.80711 22.9819 5.80493 20.8012V11.61C5.80493 8.53082 7.02812 5.57778 9.20542 3.40048C11.3827 1.22319 14.3358 0 17.4149 0C20.4941 0 23.4471 1.22319 25.6244 3.40048C27.8017 5.57778 29.0249 8.53082 29.0249 11.61V20.8012C29.0227 22.9819 28.1557 25.0727 26.614 26.6151C25.0723 28.1574 22.9819 29.0253 20.8012 29.0283ZM17.4149 1.93838C14.8504 1.94081 12.3915 2.96039 10.5777 4.77344C8.76394 6.58648 7.74339 9.04495 7.73993 11.6095V20.8007C7.74146 22.4685 8.40439 24.0676 9.58332 25.2472C10.7622 26.4269 12.3609 27.0908 14.0287 27.0933H20.8012C22.4688 27.0908 24.0674 26.4269 25.2463 25.2474C26.4252 24.0678 27.0882 22.4689 27.0899 20.8012V11.61C27.0866 9.04535 26.0661 6.58676 24.2523 4.77361C22.4385 2.96046 19.9795 1.94081 17.4149 1.93838Z" fill="#BADBD7"/>
<path d="M17.415 25.1583C15.363 25.1559 13.3957 24.3396 11.9447 22.8886C10.4937 21.4376 9.67748 19.4704 9.67505 17.4183V11.1296C9.67646 10.2314 10.0341 9.37051 10.6694 8.73569C11.3048 8.10086 12.166 7.74399 13.0642 7.74335H21.7659C22.664 7.74399 23.5253 8.10086 24.1606 8.73569C24.796 9.37051 25.1536 10.2314 25.155 11.1296V17.4183C25.1526 19.4704 24.3363 21.4376 22.8853 22.8886C21.4343 24.3396 19.4671 25.1559 17.415 25.1583ZM13.0642 9.67834C12.679 9.67834 12.3096 9.83115 12.037 10.1032C11.7644 10.3753 11.6108 10.7444 11.61 11.1296V17.4183C11.61 18.1807 11.7602 18.9355 12.0519 19.6398C12.3437 20.3441 12.7712 20.984 13.3103 21.5231C13.8493 22.0621 14.4893 22.4897 15.1936 22.7814C15.8979 23.0732 16.6527 23.2233 17.415 23.2233C18.1774 23.2233 18.9322 23.0732 19.6365 22.7814C20.3408 22.4897 20.9807 22.0621 21.5198 21.5231C22.0588 20.984 22.4864 20.3441 22.7781 19.6398C23.0699 18.9355 23.22 18.1807 23.22 17.4183V11.1296C23.2193 10.7444 23.0657 10.3753 22.7931 10.1032C22.5205 9.83115 22.151 9.67834 21.7659 9.67834H13.0642Z" fill="#BADBD7"/>
</svg>
