<svg width="32" height="32" viewBox="0 0 32 32" fill="none" xmlns="http://www.w3.org/2000/svg">
<path d="M8.75105 13.4093V30.2869V13.4093ZM8.75105 13.4093L2 13.4093V30.2869H8.75105M8.75105 13.4093L17.52 3.17887C18.3521 2.20812 19.6611 1.7908 20.9016 2.1009L20.9818 2.12096C23.2464 2.68712 24.2665 5.32588 22.9718 7.26812L18.8776 13.4093H26.5745C28.7046 13.4093 30.3023 15.358 29.8846 17.4468L27.8592 27.5734C27.5436 29.1512 26.1583 30.2869 24.5492 30.2869H8.75105" fill="#BADBD7"/>
<path d="M8.75105 13.4093V30.2869M8.75105 13.4093L2 13.4093V30.2869H8.75105M8.75105 13.4093L17.52 3.17887C18.3521 2.20812 19.6611 1.7908 20.9016 2.1009L20.9818 2.12096C23.2464 2.68712 24.2665 5.32588 22.9718 7.26812L18.8776 13.4093H26.5745C28.7046 13.4093 30.3023 15.358 29.8846 17.4468L27.8592 27.5734C27.5436 29.1512 26.1583 30.2869 24.5492 30.2869H8.75105" stroke="#555556" stroke-width="2.53165" stroke-linecap="round" stroke-linejoin="round"/>
</svg>
