<svg width="40" height="34" viewBox="0 0 40 34" fill="none" xmlns="http://www.w3.org/2000/svg">
<path fill-rule="evenodd" clip-rule="evenodd" d="M36.8095 17.843C36.374 26.8402 29.0053 34 19.9791 34C17.2067 34 14.5907 33.3242 12.2839 32.1274C13.9 31.5841 15.6567 30.8737 17.5488 29.9956C19.8738 28.9166 22.4033 27.5844 25.1277 25.9975C27.8529 24.4101 30.262 22.8659 32.3511 21.3737C34.0491 20.1609 35.5359 18.9822 36.8095 17.843ZM19.9791 0C24.1459 0 27.9594 1.52577 30.9008 4.05371L31.4943 3.91842C31.5967 3.89628 31.7007 3.87445 31.806 3.8531L32.4537 3.73193L33.1263 3.62989C35.5134 3.31526 38.1933 3.49472 39.4365 5.66695C40.8632 8.15989 39.3273 10.9247 37.6454 12.9623L37.2235 13.4559L36.8053 13.9158C34.195 16.7078 29.8729 19.9618 23.7235 23.5437C17.5743 27.1254 12.6199 29.2746 8.91791 30.1591L8.62033 30.2281L8.00007 30.3576L7.3529 30.4699C4.83055 30.8593 1.88844 30.7227 0.521232 28.3337C-0.721606 26.162 0.463515 23.7314 1.92653 21.8034L2.35024 21.2669C2.4215 21.18 2.49293 21.0943 2.56429 21.0101L2.98979 20.522L3.40255 20.0711C3.22232 19.0748 3.12813 18.0474 3.12813 17C3.12813 7.61116 10.6726 0 19.9791 0ZM4.75996 24.3072L4.47132 24.7102C4.16113 25.154 3.82165 25.7025 3.77105 26.198L3.7713 26.4407C4.03375 26.9123 4.96292 26.9174 5.64702 26.8659L6.21566 26.8105C5.66307 26.0228 5.17524 25.1859 4.75996 24.3072ZM36.1865 7.56007C35.807 7.27545 35.1882 7.25024 34.625 7.28502L34.0912 7.33241C34.009 7.34118 33.931 7.34977 33.8587 7.35726C34.4017 8.1511 34.8793 8.99383 35.2841 9.87753L35.5859 9.45226C35.9381 8.93666 36.3713 8.2015 36.254 7.71004L36.1937 7.55588L36.1865 7.56007Z" fill="#616161"/>
</svg>
