<svg width="54" height="54" viewBox="0 0 54 54" fill="none" xmlns="http://www.w3.org/2000/svg">
<path opacity="0.1" d="M2 26.8235C2 6.38135 6.38135 2 26.8235 2C47.2657 2 51.6471 6.38135 51.6471 26.8235C51.6471 47.2657 47.2657 51.6471 26.8235 51.6471C6.38135 51.6471 2 47.2657 2 26.8235Z" stroke="#CCCCCC" stroke-width="1.96078"/>
<path d="M18.549 26.8235H35.098" stroke="#CCCCCC" stroke-width="3.24706" stroke-linecap="round" stroke-linejoin="round"/>
<path d="M26.8235 18.5488V35.0979" stroke="#CCCCCC" stroke-width="3.24706" stroke-linecap="round" stroke-linejoin="round"/>
<path d="M2 26.8235C2 6.38135 6.38135 2 26.8235 2C47.2657 2 51.6471 6.38135 51.6471 26.8235C51.6471 47.2657 47.2657 51.6471 26.8235 51.6471C6.38135 51.6471 2 47.2657 2 26.8235Z" stroke="#CCCCCC" stroke-width="3.24706"/>
</svg>
