<!DOCTYPE svg PUBLIC "-//W3C//DTD SVG 1.1//EN" "http://www.w3.org/Graphics/SVG/1.1/DTD/svg11.dtd">
<!-- Uploaded to: SVG Repo, www.svgrepo.com, Transformed by: SVG Repo Mixer Tools -->
<svg version="1.1" id="Icons" xmlns="http://www.w3.org/2000/svg" xmlns:xlink="http://www.w3.org/1999/xlink" viewBox="-3.84 -3.84 39.68 39.68" xml:space="preserve" width="64px" height="64px" fill="#BADBD7" stroke="#BADBD7">
<g id="SVGRepo_bgCarrier" stroke-width="0" transform="translate(16,16), scale(0)">
<path transform="translate(-3.84, -3.84), scale(2.48)" fill="#7ed0ec" d="M9.166.33a2.25 2.25 0 00-2.332 0l-5.25 3.182A2.25 2.25 0 00.5 5.436v5.128a2.25 2.25 0 001.084 1.924l5.25 3.182a2.25 2.25 0 002.332 0l5.25-3.182a2.25 2.25 0 001.084-1.924V5.436a2.25 2.25 0 00-1.084-1.924L9.166.33z" strokewidth="0"/>
</g>
<g id="SVGRepo_tracerCarrier" stroke-linecap="round" stroke-linejoin="round" stroke="#CCCCCC" stroke-width="0.256"/>
<g id="SVGRepo_iconCarrier"> <style type="text/css"> .st0{fill:none;stroke:#BADBD7;stroke-width:0.8960000000000001;stroke-linecap:round;stroke-linejoin:round;stroke-miterlimit:10;} </style> <rect x="10" y="26" class="st0" width="4" height="3"/> <rect x="7" y="4" transform="matrix(6.123234e-17 -1 1 6.123234e-17 3 14)" class="st0" width="3" height="3"/> <rect x="22" y="4" transform="matrix(6.123234e-17 -1 1 6.123234e-17 18 29)" class="st0" width="3" height="3"/> <rect x="18" y="26" class="st0" width="4" height="3"/> <polygon class="st0" points="28,17 28,14 25,14 25,11 22,11 22,7 19,7 19,11 13,11 13,7 10,7 10,11 7,11 7,14 4,14 4,17 1,17 1,20 1,26 4,26 4,20 7,20 7,26 10,26 10,23 11,23 21,23 22,23 22,26 25,26 25,20 28,20 28,26 31,26 31,20 31,17 "/> <rect x="10" y="16" class="st0" width="3" height="3"/> <rect x="19" y="16" class="st0" width="3" height="3"/> </g>
</svg>