<svg width="6" height="24" viewBox="0 0 6 24" fill="none" xmlns="http://www.w3.org/2000/svg">
<path d="M5.33333 2.66667C5.33333 1.19391 4.13943 0 2.66667 0C1.19391 0 0 1.19391 0 2.66667C0 4.13943 1.19391 5.33333 2.66667 5.33333C4.13943 5.33333 5.33333 4.13943 5.33333 2.66667Z" fill="#BADBD7"/>
<path d="M5.33333 11.9999C5.33333 10.5272 4.13943 9.33325 2.66667 9.33325C1.19391 9.33325 0 10.5272 0 11.9999C0 13.4727 1.19391 14.6666 2.66667 14.6666C4.13943 14.6666 5.33333 13.4727 5.33333 11.9999Z" fill="#BADBD7"/>
<path d="M5.33333 21.3334C5.33333 19.8607 4.13943 18.6667 2.66667 18.6667C1.19391 18.6667 0 19.8607 0 21.3334C0 22.8062 1.19391 24.0001 2.66667 24.0001C4.13943 24.0001 5.33333 22.8062 5.33333 21.3334Z" fill="#BADBD7"/>
</svg>
